<?xml version="1.0" encoding="utf-8"?>
<!-- Generator: Adobe Illustrator 17.0.0, SVG Export Plug-In . SVG Version: 6.00 Build 0)  -->
<!DOCTYPE svg PUBLIC "-//W3C//DTD SVG 1.1//EN" "http://www.w3.org/Graphics/SVG/1.1/DTD/svg11.dtd">
<svg version="1.1" id="Capa_1" xmlns="http://www.w3.org/2000/svg" xmlns:xlink="http://www.w3.org/1999/xlink" x="0px" y="0px"
	 width="197.244px" height="70.042px" viewBox="0 0 197.244 70.042" style="enable-background:new 0 0 197.244 70.042;"
	 xml:space="preserve">
<style type="text/css">
	.st0{fill-rule:evenodd;clip-rule:evenodd;fill:#FEC300;}
	.st1{fill-rule:evenodd;clip-rule:evenodd;fill:#FFFFFF;}
	.st2{fill-rule:evenodd;clip-rule:evenodd;fill:#6BC5EA;}
	.st3{fill-rule:evenodd;clip-rule:evenodd;fill:#0057A4;}
</style>
<g>
	<polygon class="st0" points="95.123,28.371 95.059,28.312 94.713,28.028 94.34,27.737 94.016,27.475 94.303,27.612 94.59,27.764 
		94.939,27.906 95.244,28.05 95.514,28.207 95.85,28.312 95.969,28.371 	"/>
	<rect x="0" y="13.262" class="st1" width="197.244" height="43.465"/>
	<rect x="0" y="0" class="st2" width="197.244" height="16.461"/>
	<rect x="0" y="53.581" class="st2" width="197.244" height="16.461"/>
	<path class="st3" d="M136.9,23.268c2.623,0,5.844-0.345,6.535,3.224c0.166,0.905,0.213,1.547,0.213,2.143
		c0,4.438-2.229,6.591-6.748,6.155V23.268z M130.451,50.44c1.072-0.083,2.146-0.215,3.221-0.215c1.074,0,2.156,0.132,3.229,0.215
		V36.642h0.301c0.945,1.636,2.148,3.611,2.797,4.768l5.115,9.029c1.293-0.083,2.576-0.215,3.871-0.215
		c1.33,0,2.625,0.132,3.914,0.215l-1.684-2.663c-2.578-3.998-5.242-7.949-7.613-12.085c4-0.858,6.713-3.525,6.713-7.741
		c0-2.923-1.289-4.859-3.742-6.147c-1.801-0.947-4.941-0.857-6.965-0.857h-9.156V50.44z"/>
	<path class="st3" d="M155.688,20.946c1.078,0.083,2.152,0.211,3.227,0.211c1.076,0,2.152-0.128,3.225-0.211V50.44
		c-1.072-0.083-2.148-0.215-3.225-0.215c-1.074,0-2.148,0.132-3.227,0.215V20.946z"/>
	<path class="st3" d="M173.191,38.832l4.049-10.016l3.822,10.016H173.191z M182.051,41.461c1.158,2.88,2.063,5.795,3.055,8.978
		c1.246-0.083,2.451-0.215,3.697-0.215c1.246,0,2.453,0.132,3.699,0.215l-12.006-29.884c-0.555,0.085-1.068,0.132-1.625,0.132
		c-0.563,0-1.082-0.047-1.631-0.132l-12.303,29.802c0.684-0.042,1.373-0.132,2.064-0.132c0.68,0,1.33,0.091,2.023,0.132
		c0.807-2.97,1.892-5.632,3.008-8.896H182.051z"/>
	<path class="st3" d="M39.71,4.812c-0.021-0.721-0.055-1.438-0.096-2.159c0.498,0.007,0.99,0.025,1.477,0.049
		c0.492,0.027,0.988,0.036,1.486,0.036c0.816,0,1.555-0.009,2.19-0.027c0.641-0.02,1.068-0.037,1.293-0.058
		c-0.045,0.176-0.064,0.408-0.064,0.707c0,0.178,0.002,0.315,0.01,0.416c0.014,0.1,0.033,0.21,0.055,0.339
		c-0.324-0.024-0.674-0.047-1.059-0.066c-0.379-0.023-0.752-0.056-1.119-0.066c-0.354-0.035-0.682-0.04-0.975-0.054
		c-0.287-0.013-0.492-0.018-0.615-0.018c-0.041,0.604-0.059,1.212-0.07,1.806c-0.008,0.594-0.008,1.198-0.008,1.811
		c0.721-0.017,1.371-0.032,1.955-0.059c0.582-0.019,1.191-0.046,1.826-0.073c-0.039,0.184-0.057,0.331-0.072,0.43
		c-0.01,0.105-0.012,0.206-0.012,0.318c0,0.088,0.008,0.184,0.027,0.277c0.008,0.095,0.031,0.232,0.057,0.416
		c-1.27-0.105-2.525-0.154-3.781-0.154v0.848c0,0.92,0.016,1.747,0.035,2.458c0.021,0.72,0.049,1.424,0.09,2.117
		c-0.191-0.03-0.393-0.045-0.613-0.045h-1.5c-0.223,0-0.428,0.015-0.611,0.045c0.041-0.693,0.074-1.398,0.096-2.111
		c0.025-0.717,0.035-1.536,0.035-2.459V7.269C39.745,6.343,39.735,5.527,39.71,4.812L39.71,4.812z"/>
	<path class="st3" d="M50.026,8.856v0.686c0,0.918,0.01,1.736,0.031,2.454c0.022,0.719,0.059,1.418,0.1,2.111
		c-0.188-0.03-0.391-0.045-0.613-0.045h-1.5c-0.221,0-0.422,0.015-0.611,0.045c0.041-0.693,0.08-1.398,0.098-2.111
		c0.025-0.717,0.037-1.536,0.037-2.459V7.269c0-0.925-0.012-1.742-0.037-2.457c-0.018-0.721-0.057-1.438-0.098-2.159
		c0.189,0.021,0.391,0.038,0.619,0.058c0.223,0.018,0.469,0.027,0.748,0.027c0.297,0,0.639-0.009,1.023-0.046
		c0.383-0.027,0.857-0.038,1.42-0.038c0.424,0,0.785,0.007,1.086,0.025c0.301,0.029,0.56,0.06,0.769,0.11
		c0.225,0.038,0.408,0.094,0.572,0.17c0.158,0.073,0.314,0.162,0.459,0.259c0.328,0.242,0.598,0.543,0.791,0.915
		C55.112,4.48,55.21,4.92,55.21,5.417c0,0.816-0.221,1.478-0.662,1.989C54.103,7.914,53.46,8.276,52.63,8.48
		c0.529,0.951,1.102,1.888,1.715,2.836c0.613,0.937,1.221,1.869,1.834,2.792c-0.258-0.03-0.504-0.045-0.752-0.045h-1.508
		c-0.248,0-0.502,0.015-0.76,0.045l-2.986-5.251H50.026z M52.511,4.616c-0.1-0.283-0.248-0.501-0.459-0.658
		c-0.209-0.152-0.475-0.247-0.803-0.294c-0.328-0.037-0.721-0.066-1.18-0.066c-0.027,1.512-0.043,3.023-0.043,4.533
		c0.065,0.012,0.131,0.022,0.191,0.022c0.063,0.015,0.121,0.015,0.178,0.015c0.73,0,1.295-0.201,1.682-0.59
		c0.387-0.401,0.584-0.996,0.584-1.795C52.661,5.299,52.608,4.905,52.511,4.616L52.511,4.616z"/>
	<path class="st3" d="M56.89,4.812c-0.021-0.721-0.053-1.438-0.1-2.159c0.51,0.007,1.008,0.025,1.494,0.049
		c0.494,0.027,0.992,0.036,1.496,0.036c0.822,0,1.553-0.009,2.191-0.027c0.633-0.02,1.068-0.037,1.285-0.058
		c-0.037,0.176-0.063,0.408-0.063,0.707c0,0.178,0.006,0.315,0.016,0.416c0.012,0.1,0.027,0.21,0.047,0.339
		c-0.316-0.024-0.668-0.047-1.053-0.066c-0.385-0.023-0.756-0.056-1.115-0.066c-0.365-0.035-0.688-0.04-0.982-0.054
		c-0.281-0.013-0.492-0.018-0.613-0.018c-0.045,0.604-0.068,1.212-0.08,1.806c-0.008,0.594-0.008,1.198-0.008,1.811
		c0.721-0.017,1.371-0.032,1.961-0.059c0.58-0.019,1.188-0.046,1.826-0.073c-0.037,0.184-0.06,0.331-0.068,0.43
		c-0.016,0.105-0.016,0.206-0.016,0.318c0,0.088,0.004,0.184,0.023,0.277c0.018,0.095,0.033,0.232,0.06,0.416
		c-1.27-0.105-2.529-0.154-3.787-0.154c0,0.349-0.002,0.707-0.01,1.058c-0.006,0.353-0.012,0.71-0.012,1.064
		c0,0.72,0.012,1.419,0.045,2.082c0.635,0,1.266-0.019,1.896-0.046c0.635-0.032,1.27-0.083,1.92-0.157
		c-0.023,0.125-0.039,0.24-0.051,0.34c-0.012,0.096-0.018,0.232-0.018,0.411c0,0.179,0.006,0.32,0.018,0.42
		c0.012,0.101,0.027,0.183,0.051,0.25c-0.301-0.018-0.672-0.027-1.105-0.03c-0.443-0.01-1.047-0.015-1.813-0.015h-2.641
		c-0.252,0-0.439,0.005-0.568,0.015c-0.127,0.003-0.234,0.013-0.328,0.03c0.047-0.693,0.078-1.398,0.1-2.111
		c0.025-0.717,0.035-1.536,0.035-2.459V7.269C56.925,6.343,56.915,5.527,56.89,4.812L56.89,4.812z"/>
	<path class="st3" d="M64.862,4.035c-0.021-0.524-0.041-0.986-0.047-1.382c0.309,0.058,0.559,0.085,0.748,0.085
		c0.188,0,0.439-0.027,0.75-0.085c1.207,1.34,2.406,2.664,3.592,3.963c1.182,1.301,2.395,2.626,3.635,3.97V7.52
		c0-0.545,0-1.083-0.004-1.615c-0.008-0.521-0.014-1.01-0.023-1.455c0-0.443-0.012-0.83-0.029-1.15
		c-0.021-0.32-0.039-0.54-0.066-0.648c0.313,0.058,0.559,0.085,0.754,0.085c0.186,0,0.436-0.027,0.75-0.085
		c-0.057,1.01-0.105,1.917-0.141,2.74c-0.033,0.816-0.055,1.587-0.084,2.309c-0.016,0.724-0.029,1.441-0.041,2.146
		c-0.004,0.705-0.01,1.458-0.01,2.256v2.003c-0.217-0.03-0.441-0.045-0.68-0.045c-0.242,0-0.457,0.015-0.648,0.045
		c-2.283-2.67-4.705-5.354-7.262-8.054c-0.016,0.318-0.027,0.647-0.035,0.964c-0.004,0.325-0.01,0.653-0.01,0.984v1.938
		c0,0.667,0,1.23,0.004,1.699c0.01,0.466,0.02,0.859,0.035,1.177c0.01,0.329,0.02,0.591,0.039,0.801
		c0.004,0.2,0.02,0.369,0.029,0.492c-0.131-0.03-0.268-0.045-0.398-0.045h-0.385c-0.258,0-0.514,0.015-0.764,0.045
		c0.018-0.091,0.047-0.407,0.08-0.955c0.033-0.545,0.072-1.21,0.109-1.988c0.039-0.786,0.07-1.632,0.098-2.557
		c0.031-0.912,0.041-1.792,0.041-2.642C64.899,5.203,64.89,4.558,64.862,4.035L64.862,4.035z"/>
	<path class="st3" d="M79.005,4.497c-0.006-0.269-0.023-0.462-0.043-0.585c-0.166,0-0.375,0.005-0.613,0.018
		c-0.248,0.014-0.506,0.019-0.785,0.043c-0.277,0.01-0.564,0.035-0.854,0.053c-0.283,0.033-0.553,0.06-0.797,0.092
		c0.023-0.126,0.041-0.246,0.059-0.37c0.016-0.121,0.02-0.243,0.02-0.367c0-0.118-0.004-0.238-0.02-0.365
		c-0.018-0.125-0.035-0.247-0.059-0.364c0.375,0.007,0.719,0.021,1.025,0.034c0.303,0.01,0.619,0.02,0.932,0.024
		c0.316,0.013,0.66,0.018,1.035,0.018c0.363,0.009,0.816,0.009,1.34,0.009c0.521,0,0.965,0,1.336-0.009
		c0.371,0,0.709-0.005,1.025-0.018c0.307-0.004,0.609-0.015,0.91-0.024c0.289-0.012,0.611-0.027,0.953-0.034
		c-0.024,0.117-0.039,0.24-0.059,0.364c-0.014,0.127-0.025,0.247-0.025,0.365c0,0.124,0.012,0.247,0.025,0.367
		c0.02,0.124,0.035,0.244,0.059,0.37c-0.223-0.032-0.471-0.059-0.75-0.092c-0.277-0.019-0.547-0.043-0.824-0.053
		c-0.27-0.025-0.531-0.03-0.777-0.043c-0.238-0.013-0.447-0.018-0.613-0.018c-0.012,0.062-0.021,0.137-0.025,0.233
		c-0.002,0.098-0.008,0.214-0.008,0.352v5.045c0,0.918,0.012,1.739,0.033,2.454c0.018,0.719,0.061,1.425,0.102,2.111
		c-0.186-0.03-0.391-0.045-0.619-0.045h-1.492c-0.227,0-0.428,0.015-0.619,0.045c0.051-0.686,0.084-1.393,0.102-2.111
		c0.023-0.715,0.035-1.536,0.035-2.454V5.379C79.013,5.055,79.007,4.764,79.005,4.497L79.005,4.497z"/>
	<path class="st3" d="M85.155,7.269v2.268c0,0.923-0.016,1.742-0.035,2.459c-0.021,0.714-0.053,1.418-0.1,2.111
		c0.092-0.018,0.195-0.027,0.322-0.03c0.131-0.01,0.315-0.015,0.568-0.015h2.645c0.766,0,1.371,0.005,1.811,0.015
		c0.438,0.003,0.803,0.013,1.105,0.03c-0.02-0.067-0.037-0.149-0.047-0.25c-0.014-0.101-0.021-0.242-0.021-0.42
		c0-0.179,0.008-0.316,0.021-0.411c0.01-0.101,0.027-0.216,0.047-0.34c-0.643,0.073-1.279,0.125-1.916,0.157
		c-0.633,0.027-1.268,0.046-1.896,0.046c-0.033-0.663-0.045-1.362-0.045-2.082c0-0.354,0.004-0.711,0.01-1.064
		c0.008-0.351,0.014-0.709,0.014-1.058c1.252,0,2.51,0.048,3.783,0.154c-0.027-0.184-0.045-0.321-0.064-0.416
		c-0.012-0.093-0.021-0.189-0.021-0.277c0-0.112,0-0.213,0.016-0.318c0.012-0.1,0.029-0.247,0.07-0.43
		c-0.637,0.027-1.246,0.055-1.826,0.073c-0.586,0.027-1.24,0.043-1.957,0.059c0-0.612,0-1.216,0.008-1.811
		c0.006-0.594,0.031-1.202,0.076-1.806c0.125,0,0.33,0.005,0.619,0.018c0.285,0.014,0.611,0.019,0.977,0.054
		c0.354,0.009,0.73,0.043,1.111,0.066c0.385,0.019,0.74,0.042,1.057,0.066c-0.02-0.129-0.033-0.24-0.045-0.339
		c-0.016-0.101-0.016-0.238-0.016-0.416c0-0.299,0.021-0.532,0.061-0.707c-0.219,0.021-0.65,0.038-1.289,0.058
		c-0.639,0.018-1.365,0.027-2.191,0.027c-0.5,0-0.994-0.009-1.49-0.036c-0.494-0.024-0.992-0.043-1.494-0.049
		c0.047,0.721,0.078,1.438,0.1,2.159C85.14,5.527,85.155,6.343,85.155,7.269L85.155,7.269z"/>
	<path class="st3" d="M99.582,7.269v2.268c0,0.923-0.01,1.742-0.029,2.459c-0.025,0.714-0.064,1.418-0.103,2.111
		c0.189-0.03,0.398-0.045,0.623-0.045h1.504c0.225,0,0.43,0.015,0.623,0.045c-0.059-0.817-0.094-1.635-0.113-2.469
		c-0.016-0.827-0.023-1.658-0.023-2.495h0.852c0.619,0,1.189-0.068,1.707-0.2c0.525-0.132,0.975-0.343,1.357-0.622
		c0.381-0.288,0.678-0.653,0.887-1.113c0.213-0.45,0.314-0.996,0.314-1.631c0-0.492-0.082-0.923-0.244-1.279
		c-0.166-0.354-0.434-0.676-0.787-0.964c-0.258-0.223-0.6-0.39-1.047-0.507c-0.445-0.115-1.063-0.173-1.854-0.173
		c-0.398,0-0.807,0.012-1.225,0.038c-0.414,0.038-0.818,0.046-1.203,0.046c-0.281,0-0.529-0.009-0.754-0.027
		c-0.219-0.02-0.428-0.037-0.617-0.058c0.039,0.721,0.078,1.438,0.103,2.159C99.572,5.527,99.582,6.343,99.582,7.269L99.582,7.269z
		 M104.545,5.852c0,0.534-0.076,0.963-0.232,1.279c-0.154,0.326-0.35,0.57-0.592,0.744c-0.244,0.173-0.516,0.279-0.807,0.34
		c-0.291,0.061-0.57,0.08-0.852,0.08c0-0.775,0-1.547,0.004-2.326c0.014-0.767,0.014-1.549,0.02-2.349
		c0.045-0.015,0.094-0.022,0.152-0.022h0.549c0.234,0,0.457,0.042,0.672,0.123c0.215,0.073,0.404,0.195,0.561,0.373
		c0.164,0.169,0.291,0.401,0.387,0.686C104.5,5.069,104.545,5.431,104.545,5.852L104.545,5.852z"/>
	<path class="st3" d="M115.33,14.107c-0.27-0.03-0.52-0.045-0.758-0.045h-1.422c-0.236,0-0.471,0.015-0.703,0.045
		c-0.182-0.548-0.365-1.111-0.551-1.676c-0.191-0.572-0.391-1.142-0.604-1.72c-0.355-0.01-0.707-0.023-1.063-0.032
		c-0.359-0.005-0.717-0.011-1.066-0.011c-0.291,0-0.578,0.006-0.869,0.011c-0.285,0.008-0.576,0.022-0.867,0.032
		c-0.215,0.578-0.426,1.148-0.617,1.72c-0.188,0.565-0.357,1.128-0.514,1.676c-0.135-0.03-0.264-0.045-0.389-0.045h-0.797
		c-0.131,0-0.277,0.015-0.432,0.045c0.137-0.292,0.311-0.693,0.535-1.207c0.219-0.506,0.463-1.088,0.73-1.732
		c0.268-0.643,0.555-1.337,0.857-2.077c0.305-0.744,0.615-1.484,0.916-2.248c0.305-0.748,0.609-1.495,0.904-2.235
		c0.295-0.732,0.561-1.413,0.809-2.049c0.107,0.021,0.215,0.047,0.307,0.065c0.105,0.018,0.213,0.029,0.32,0.029
		c0.111,0,0.219-0.011,0.318-0.029c0.098-0.017,0.209-0.044,0.316-0.065c0.354,0.947,0.736,1.957,1.141,3.042
		c0.41,1.078,0.814,2.13,1.229,3.177c0.406,1.037,0.807,2.023,1.195,2.962C114.648,12.668,114.998,13.458,115.33,14.107
		L115.33,14.107z M109.432,5.778c-0.291,0.67-0.566,1.326-0.82,1.974c-0.254,0.645-0.506,1.314-0.748,1.989h3.047
		c-0.242-0.675-0.486-1.344-0.721-1.989C109.947,7.105,109.695,6.449,109.432,5.778L109.432,5.778z"/>
	<path class="st3" d="M118.162,8.856v0.686c0,0.918,0.016,1.736,0.031,2.454c0.021,0.719,0.063,1.418,0.104,2.111
		c-0.189-0.03-0.393-0.045-0.613-0.045h-1.496c-0.225,0-0.428,0.015-0.621,0.045c0.047-0.693,0.08-1.398,0.098-2.111
		c0.021-0.717,0.043-1.536,0.043-2.459V7.269c0-0.925-0.021-1.742-0.043-2.457c-0.018-0.721-0.051-1.438-0.098-2.159
		c0.193,0.021,0.396,0.038,0.621,0.058c0.219,0.018,0.465,0.027,0.748,0.027c0.299,0,0.639-0.009,1.021-0.046
		c0.383-0.027,0.857-0.038,1.426-0.038c0.42,0,0.783,0.007,1.084,0.025c0.295,0.029,0.555,0.06,0.77,0.11
		c0.219,0.038,0.404,0.094,0.57,0.17c0.16,0.073,0.314,0.162,0.457,0.259c0.334,0.242,0.594,0.543,0.789,0.915
		c0.193,0.348,0.291,0.788,0.291,1.285c0,0.816-0.217,1.478-0.662,1.989c-0.443,0.508-1.082,0.871-1.92,1.074
		c0.537,0.951,1.111,1.888,1.721,2.836c0.609,0.937,1.221,1.869,1.832,2.792c-0.254-0.03-0.506-0.045-0.754-0.045h-1.51
		c-0.244,0-0.498,0.015-0.752,0.045l-2.988-5.251H118.162z M120.65,4.616c-0.102-0.283-0.252-0.501-0.461-0.658
		c-0.207-0.152-0.475-0.247-0.807-0.294c-0.322-0.037-0.725-0.066-1.178-0.066c-0.025,1.512-0.043,3.023-0.043,4.533
		c0.066,0.012,0.131,0.022,0.193,0.022c0.061,0.015,0.117,0.015,0.174,0.015c0.734,0,1.297-0.201,1.686-0.59
		c0.387-0.401,0.58-0.996,0.58-1.795C120.795,5.299,120.75,4.905,120.65,4.616L120.65,4.616z"/>
	<path class="st3" d="M134.457,14.107c-0.266-0.03-0.521-0.045-0.758-0.045h-1.422c-0.232,0-0.469,0.015-0.707,0.045
		c-0.176-0.548-0.361-1.111-0.551-1.676c-0.188-0.572-0.383-1.142-0.596-1.72c-0.355-0.01-0.715-0.023-1.064-0.032
		c-0.359-0.005-0.715-0.011-1.072-0.011c-0.281,0-0.568,0.006-0.863,0.011c-0.289,0.008-0.58,0.022-0.869,0.032
		c-0.219,0.578-0.422,1.148-0.611,1.72c-0.188,0.565-0.365,1.128-0.516,1.676c-0.137-0.03-0.266-0.045-0.389-0.045h-0.797
		c-0.137,0-0.271,0.015-0.434,0.045c0.131-0.292,0.313-0.693,0.535-1.207c0.219-0.506,0.465-1.088,0.734-1.732
		c0.268-0.643,0.543-1.337,0.855-2.077c0.307-0.744,0.609-1.484,0.916-2.248c0.311-0.748,0.604-1.495,0.904-2.235
		c0.289-0.732,0.559-1.413,0.803-2.049c0.113,0.021,0.213,0.047,0.318,0.065c0.096,0.018,0.205,0.029,0.318,0.029
		c0.107,0,0.215-0.011,0.313-0.029c0.102-0.017,0.203-0.044,0.322-0.065c0.354,0.947,0.732,1.957,1.139,3.042
		c0.408,1.078,0.811,2.13,1.223,3.177c0.408,1.037,0.811,2.023,1.201,2.962C133.777,12.668,134.137,13.458,134.457,14.107
		L134.457,14.107z M128.557,5.778c-0.287,0.67-0.555,1.326-0.816,1.974c-0.252,0.645-0.504,1.314-0.752,1.989h3.051
		c-0.246-0.675-0.484-1.344-0.723-1.989C129.08,7.105,128.828,6.449,128.557,5.778L128.557,5.778z"/>
	<path class="st3" d="M141.729,4.812c-0.018-0.721-0.057-1.438-0.098-2.159c0.188,0.021,0.395,0.038,0.611,0.058
		c0.223,0.018,0.475,0.027,0.748,0.027c0.279,0,0.529-0.009,0.748-0.027c0.221-0.02,0.428-0.037,0.609-0.058
		c-0.035,0.716-0.068,1.438-0.09,2.154c-0.021,0.715-0.037,1.535-0.037,2.457v2.258c0,0.636,0.008,1.25,0.016,1.832
		c0.006,0.587,0.016,1.099,0.031,1.534c0.637,0,1.264-0.019,1.9-0.046c0.631-0.032,1.27-0.083,1.91-0.157
		c-0.016,0.125-0.041,0.24-0.049,0.34c-0.014,0.096-0.02,0.232-0.02,0.411c0,0.179,0.006,0.32,0.02,0.42
		c0.008,0.101,0.033,0.183,0.049,0.25c-0.293-0.018-0.664-0.027-1.109-0.03c-0.434-0.01-1.033-0.015-1.801-0.015h-2.646
		c-0.248,0-0.435,0.005-0.563,0.015c-0.129,0.003-0.236,0.013-0.328,0.03c0.041-0.693,0.08-1.398,0.098-2.111
		c0.02-0.717,0.033-1.536,0.033-2.459V7.269C141.762,6.343,141.748,5.527,141.729,4.812L141.729,4.812z"/>
	<path class="st3" d="M158.83,14.107c-0.258-0.03-0.512-0.045-0.754-0.045h-1.418c-0.24,0-0.477,0.015-0.709,0.045
		c-0.178-0.548-0.357-1.111-0.549-1.676c-0.188-0.572-0.389-1.142-0.6-1.72c-0.359-0.01-0.709-0.023-1.068-0.032
		c-0.354-0.005-0.707-0.011-1.066-0.011c-0.287,0-0.578,0.006-0.863,0.011c-0.287,0.008-0.576,0.022-0.867,0.032
		c-0.223,0.578-0.428,1.148-0.615,1.72c-0.184,0.565-0.365,1.128-0.518,1.676c-0.137-0.03-0.271-0.045-0.393-0.045h-0.785
		c-0.139,0-0.281,0.015-0.436,0.045c0.137-0.292,0.311-0.693,0.529-1.207c0.225-0.506,0.465-1.088,0.732-1.732
		c0.27-0.643,0.559-1.337,0.859-2.077c0.305-0.744,0.613-1.484,0.92-2.248c0.305-0.748,0.598-1.495,0.899-2.235
		c0.295-0.732,0.563-1.413,0.809-2.049c0.109,0.021,0.221,0.047,0.318,0.065c0.1,0.018,0.199,0.029,0.313,0.029
		s0.219-0.011,0.318-0.029c0.094-0.017,0.205-0.044,0.314-0.065c0.355,0.947,0.738,1.957,1.145,3.042
		c0.4,1.078,0.813,2.13,1.225,3.177c0.41,1.037,0.807,2.023,1.195,2.962C158.158,12.668,158.512,13.458,158.83,14.107L158.83,14.107
		z M152.938,5.778c-0.289,0.67-0.561,1.326-0.816,1.974c-0.258,0.645-0.508,1.314-0.75,1.989h3.047
		c-0.24-0.675-0.488-1.344-0.725-1.989C153.453,7.105,153.203,6.449,152.938,5.778L152.938,5.778z"/>
	<path class="st3" d="M18.56,50.225c-0.639,0-1.246,0.132-1.846,0.215C13.101,40.419,9.232,30.706,5.193,20.946
		c1.242,0.083,2.537,0.211,3.785,0.211c1.242,0,2.525-0.128,3.773-0.211c2.109,7.133,5.041,14.138,7.617,21.287
		c2.92-7.054,5.721-14.153,8.037-21.287c0.648,0.083,1.336,0.125,1.981,0.125c0.646,0,1.332-0.042,1.975-0.125
		c-4.167,9.759-8.386,19.395-11.993,29.493C19.767,50.357,19.17,50.225,18.56,50.225L18.56,50.225z"/>
	<path class="st3" d="M35.294,20.946c1.068,0.083,2.148,0.211,3.221,0.211c1.078,0,2.152-0.128,3.225-0.211V50.44
		c-1.072-0.083-2.146-0.215-3.225-0.215c-1.072,0-2.152,0.132-3.221,0.215V20.946z"/>
	<path class="st3" d="M70.72,45.456l-0.947,3.695c-2.576,1.326-5.627,1.852-8.514,1.852c-9.203,0-16.162-5.679-16.162-14.488
		c0-11.224,7.734-16.344,17.117-16.344c2.828,0,6.271,0.727,8.773,2.109c-0.393,1.456-0.656,2.925-0.996,4.428h-0.598
		c-1.59-2.325-4.352-3.955-7.139-3.955c-7.142,0-10.023,6.833-10.023,13.152c0,7.353,3.611,12.514,10.234,12.514
		c2.666,0,5.764-1.377,7.699-3.225L70.72,45.456z"/>
	<path class="st3" d="M86.241,50.44c-1.068-0.083-2.145-0.215-3.223-0.215c-1.074,0-2.148,0.132-3.221,0.215V23.997
		c-3.059,0-5.764,0.296-8.002,0.602c0.09-0.602,0.217-1.201,0.217-1.846c0-0.608-0.127-1.208-0.217-1.807h22.146
		c-0.082,0.6-0.215,1.199-0.215,1.807c0,0.645,0.133,1.244,0.215,1.846c-2.538-0.306-5.073-0.602-7.7-0.602V50.44z"/>
	<polygon class="st0" points="99.617,28.371 99.533,28.312 99.24,28.176 98.969,28.028 98.713,27.887 98.424,27.737 98.197,27.566 
		97.955,27.405 97.619,27.118 97.254,26.813 96.963,26.46 96.666,26.136 96.375,25.792 96.059,25.465 95.773,25.127 95.467,24.783 
		95.773,24.975 96.059,25.176 96.336,25.356 96.623,25.55 96.91,25.751 97.168,25.933 97.441,26.136 97.773,26.295 97.955,26.422 
		98.18,26.507 98.361,26.612 98.594,26.734 98.807,26.827 99.016,26.916 99.256,27.024 99.467,27.118 99.697,27.207 99.879,27.31 
		100.119,27.434 100.313,27.529 100.529,27.612 100.738,27.737 100.975,27.84 101.148,27.96 101.256,28.006 101.346,28.05 
		101.393,28.098 101.502,28.149 101.563,28.006 101.668,27.86 101.756,27.718 101.879,27.566 101.801,27.503 101.756,27.434 
		101.68,27.358 101.588,27.27 101.547,27.187 101.439,27.118 101.393,27.024 101.271,26.95 101.063,26.754 100.852,26.566 
		100.563,26.367 100.313,26.204 100.076,26.003 99.834,25.812 99.617,25.601 99.426,25.386 99.135,25.053 98.885,24.691 
		98.605,24.324 98.393,23.946 98.152,23.552 97.895,23.17 97.654,22.808 97.441,22.426 97.666,22.68 97.908,22.918 98.18,23.138 
		98.424,23.376 98.66,23.617 98.896,23.828 99.168,24.075 99.408,24.283 99.789,24.569 100.193,24.856 100.578,25.127 
		100.98,25.386 101.393,25.647 101.756,25.92 102.139,26.204 102.502,26.492 102.576,26.538 102.604,26.586 102.664,26.63 
		102.773,26.688 102.889,26.538 103.018,26.422 103.15,26.295 103.275,26.177 103.18,26.032 103.061,25.87 102.906,25.704 
		102.816,25.523 102.621,25.296 102.424,25.066 102.209,24.829 101.998,24.613 101.791,24.402 101.588,24.156 101.424,23.923 
		101.256,23.676 101.018,23.293 100.82,22.918 100.607,22.51 100.455,22.101 100.277,21.692 100.119,21.282 99.957,20.875 
		99.756,20.462 99.982,20.718 100.166,20.993 100.396,21.282 100.578,21.53 100.771,21.817 100.98,22.062 101.227,22.336 
		101.424,22.597 101.727,22.93 102.08,23.268 102.424,23.617 102.787,23.946 103.107,24.283 103.467,24.613 103.803,24.951 
		104.105,25.296 104.137,25.339 104.184,25.356 104.23,25.418 104.23,25.465 104.41,25.356 104.551,25.267 104.74,25.176 
		104.908,25.066 104.832,24.897 104.74,24.733 104.639,24.569 104.592,24.402 104.459,24.129 104.291,23.87 104.088,23.625 
		103.938,23.376 103.777,23.102 103.604,22.855 103.467,22.597 103.346,22.336 103.18,21.935 103.078,21.497 102.941,21.082 
		102.834,20.658 102.744,20.224 102.664,19.776 102.576,19.357 102.488,18.916 102.621,19.204 102.773,19.52 102.941,19.813 
		103.078,20.129 103.246,20.418 103.391,20.718 103.564,21.004 103.758,21.298 104.006,21.692 104.26,22.062 104.551,22.446 
		104.832,22.844 105.096,23.224 105.396,23.617 105.648,23.991 105.91,24.376 105.941,24.402 105.941,24.445 105.973,24.476 
		105.984,24.491 106.156,24.429 106.348,24.359 106.549,24.283 106.729,24.239 106.682,24.075 106.637,23.901 106.561,23.754 
		106.549,23.586 106.441,23.293 106.348,23.04 106.197,22.734 106.061,22.481 105.984,22.224 105.85,21.935 105.773,21.665 
		105.686,21.372 105.602,20.946 105.563,20.508 105.506,20.072 105.49,19.608 105.455,19.188 105.455,18.329 105.412,17.883 
		105.529,18.209 105.619,18.507 105.699,18.857 105.816,19.155 105.941,19.476 106.018,19.813 106.135,20.129 106.229,20.432 
		106.426,20.875 106.637,21.282 106.838,21.692 107.078,22.113 107.258,22.524 107.48,22.93 107.67,23.376 107.863,23.796 
		107.863,23.87 107.955,23.84 108.076,23.828 108.197,23.796 108.289,23.781 108.396,23.781 108.467,23.754 108.561,23.736 
		108.68,23.703 108.697,23.586 108.654,23.434 108.637,23.268 108.607,23.087 108.561,22.799 108.486,22.524 108.408,22.235 
		108.346,21.951 108.289,21.665 108.225,21.372 108.197,21.082 108.197,20.383 108.225,19.96 108.242,19.52 108.289,19.087 
		108.363,18.661 108.439,18.251 108.486,17.813 108.533,17.387 108.561,17.719 108.607,18.04 108.637,18.368 108.697,18.677 
		108.76,19.023 108.803,19.357 108.865,19.692 108.924,20.024 109.018,20.462 109.141,20.882 109.271,21.355 109.455,21.781 
		109.59,22.235 109.738,22.68 109.863,23.138 109.967,23.552 110.77,23.552 110.77,23.387 110.789,23.251 110.814,23.102 
		110.789,22.977 110.77,22.72 110.789,22.426 110.746,22.145 110.727,21.857 110.668,21.571 110.699,21.252 110.746,20.961 
		110.77,20.674 110.943,19.855 111.18,19.036 111.471,18.223 111.729,17.399 111.688,17.746 111.688,18.053 111.65,18.388 
		111.637,18.734 111.607,19.068 111.607,20.072 111.65,20.508 111.715,20.961 111.775,21.419 111.846,21.871 111.889,22.336 
		111.971,22.799 112.016,23.251 112.049,23.703 112.475,23.703 112.547,23.736 112.639,23.754 112.758,23.754 112.869,23.781 
		112.869,23.66 112.914,23.534 112.941,23.417 112.953,23.268 113.031,22.72 113.1,22.145 113.164,21.571 113.359,21.004 
		113.686,20.261 114.059,19.493 114.504,18.752 114.885,17.975 114.715,18.615 114.559,19.265 114.441,19.905 114.318,20.555 
		114.271,20.993 114.23,21.446 114.213,21.903 114.213,22.356 114.184,22.808 114.152,23.268 114.139,23.703 114.094,24.156 
		114.152,24.19 114.258,24.19 114.375,24.205 114.467,24.239 114.559,24.283 114.637,24.315 114.762,24.359 114.885,24.376 
		114.926,24.252 114.969,24.129 115.016,24.039 115.074,23.923 115.244,23.387 115.416,22.844 115.578,22.287 115.865,21.781 
		116.063,21.446 116.301,21.082 116.59,20.75 116.805,20.432 117.109,20.102 117.379,19.768 117.666,19.432 117.904,19.087 
		117.666,19.659 117.379,20.261 117.137,20.875 116.895,21.497 116.652,22.336 116.475,23.204 116.268,24.075 116.033,24.897 
		116.15,24.951 116.201,25.007 116.326,25.053 116.396,25.098 116.516,25.176 116.557,25.223 116.688,25.267 116.758,25.339 
		116.82,25.223 116.932,25.127 116.973,25.007 117.059,24.897 117.348,24.402 117.574,23.901 117.836,23.387 118.199,22.964 
		118.486,22.649 118.775,22.356 119.094,22.062 119.424,21.781 119.762,21.519 120.094,21.235 120.426,20.946 120.719,20.658 
		120.549,20.92 120.381,21.176 120.182,21.467 120.014,21.738 119.838,21.998 119.637,22.262 119.488,22.553 119.305,22.844 
		118.91,23.617 118.561,24.429 118.199,25.24 117.803,26.032 117.904,26.118 117.984,26.165 118.074,26.223 118.158,26.295 
		118.199,26.367 118.287,26.453 118.363,26.492 118.455,26.566 118.537,26.46 118.621,26.367 118.744,26.287 118.85,26.177 
		119.031,25.99 119.23,25.766 119.393,25.523 119.561,25.313 119.729,25.098 119.895,24.888 120.121,24.665 120.369,24.491 
		120.672,24.239 121.031,24.024 121.395,23.781 121.777,23.552 122.17,23.341 122.549,23.138 122.91,22.918 123.285,22.688 
		123.043,22.918 122.834,23.143 122.59,23.376 122.355,23.617 122.105,23.84 121.863,24.087 121.65,24.324 121.438,24.569 
		121.168,24.897 120.91,25.267 120.703,25.647 120.408,26.003 120.168,26.402 119.926,26.754 119.672,27.118 119.393,27.475 
		119.439,27.559 119.52,27.645 119.561,27.718 119.672,27.796 119.729,27.86 119.803,27.928 119.854,28.028 119.926,28.098 
		120.049,28.028 120.182,27.928 120.256,27.86 120.381,27.764 120.621,27.598 120.836,27.405 121.061,27.207 121.275,27.024 
		121.475,26.827 121.699,26.659 121.939,26.492 122.184,26.367 122.563,26.177 122.955,26.003 123.365,25.839 123.744,25.704 
		124.182,25.55 124.607,25.418 125.014,25.267 125.428,25.098 125.166,25.296 124.879,25.465 124.635,25.647 124.367,25.812 
		124.08,26.003 123.822,26.223 123.549,26.422 123.26,26.63 122.924,26.916 122.637,27.239 122.307,27.559 121.986,27.86 
		121.65,28.207 121.52,28.371 118.168,28.371 117.865,28.028 117.109,27.384 116.301,26.813 115.486,26.295 114.59,25.87 
		113.658,25.523 112.668,25.296 111.65,25.127 110.627,25.066 109.59,25.127 108.574,25.296 107.65,25.523 106.729,25.87 
		105.85,26.295 105.006,26.813 104.23,27.384 103.564,28.028 103.275,28.371 	"/>
	<polygon class="st0" points="104.908,28.371 104.592,28.312 104.908,28.05 105.213,27.796 105.563,27.559 105.91,27.324 
		106.275,27.118 106.607,26.95 107.02,26.754 107.383,26.612 107.773,26.46 108.152,26.338 108.574,26.223 108.969,26.165 
		109.395,26.091 109.805,26.032 110.238,25.99 111.08,25.99 111.471,26.032 111.889,26.091 112.303,26.165 112.744,26.223 
		113.119,26.338 113.525,26.46 113.941,26.612 114.346,26.754 114.729,26.95 115.123,27.118 115.486,27.324 115.836,27.559 
		116.201,27.796 116.527,28.05 116.852,28.312 116.59,28.371 	"/>
	<polygon class="st0" points="124.105,28.371 124.549,28.26 124.922,28.207 125.41,28.098 125.836,28.05 126.271,27.979 
		126.727,27.887 127.15,27.812 126.871,27.928 126.531,28.089 126.225,28.207 125.957,28.339 125.912,28.371 	"/>
	<polygon class="st0" points="99.256,35.194 99.256,35.096 99.287,34.979 99.256,34.871 99.287,34.776 99.168,34.75 99.063,34.736 
		98.943,34.709 98.846,34.69 98.723,34.69 98.637,34.653 98.547,34.65 98.424,34.65 98.111,34.617 96.623,34.617 96.305,34.585 
		96.047,34.544 95.576,34.448 95.197,34.322 94.74,34.206 94.34,34.054 93.879,33.891 93.466,33.753 93.036,33.584 92.569,33.438 
		92.94,33.476 93.306,33.505 93.607,33.555 93.967,33.584 94.303,33.602 94.621,33.66 94.986,33.66 95.287,33.67 95.756,33.67 
		96.23,33.66 96.715,33.602 97.168,33.584 97.619,33.555 98.111,33.505 98.559,33.476 99.256,33.476 99.344,33.505 99.344,33.305 
		99.408,33.127 99.451,32.963 99.451,32.765 99.334,32.738 99.256,32.719 99.135,32.689 99.043,32.654 98.926,32.645 98.834,32.606 
		98.713,32.568 98.594,32.555 98.324,32.479 97.986,32.405 97.697,32.354 97.377,32.324 97.076,32.285 96.803,32.21 96.52,32.148 
		96.256,32.038 95.814,31.875 95.439,31.679 94.996,31.491 94.621,31.284 94.219,31.038 93.83,30.81 93.427,30.597 93.036,30.39 
		93.351,30.476 93.678,30.58 94.045,30.649 94.34,30.749 94.666,30.844 94.986,30.919 95.32,30.976 95.654,31.057 95.893,31.101 
		96.141,31.128 96.336,31.157 96.592,31.175 96.832,31.22 97.076,31.248 97.287,31.284 97.531,31.284 97.773,31.297 98.014,31.327 
		98.258,31.343 98.471,31.37 98.713,31.417 98.943,31.448 99.178,31.461 99.408,31.502 99.506,31.539 99.572,31.539 99.668,31.571 
		99.756,31.58 99.789,31.417 99.865,31.248 99.91,31.101 99.957,30.932 99.879,30.886 99.756,30.844 99.668,30.774 99.545,30.721 
		99.467,30.67 99.344,30.629 99.256,30.58 99.168,30.524 98.885,30.406 98.594,30.281 98.299,30.191 98.014,30.096 97.666,29.985 
		97.412,29.902 97.115,29.78 96.883,29.643 96.496,29.401 96.109,29.164 95.756,28.875 95.408,28.597 95.123,28.371 95.969,28.371 
		96.166,28.458 96.496,28.587 96.678,28.66 96.92,28.719 97.168,28.797 97.365,28.875 97.605,28.916 97.818,28.997 98.076,29.076 
		98.275,29.118 98.518,29.191 98.76,29.237 98.996,29.299 99.215,29.367 99.426,29.448 99.668,29.523 99.879,29.585 100.109,29.658 
		100.193,29.692 100.287,29.701 100.363,29.761 100.414,29.78 100.529,29.614 100.607,29.448 100.725,29.299 100.803,29.127 
		100.682,29.086 100.639,29.012 100.529,28.965 100.414,28.884 100.336,28.824 100.227,28.751 100.156,28.706 100.023,28.628 
		99.789,28.458 99.617,28.371 103.275,28.371 102.906,28.751 102.336,29.538 101.879,30.39 101.469,31.248 101.141,32.195 
		100.936,33.147 100.803,34.155 100.771,35.194 	"/>
	<polygon class="st0" points="121,35.194 120.91,34.155 120.771,33.147 120.457,32.195 120.121,31.248 119.672,30.39 
		119.104,29.538 118.502,28.751 118.168,28.371 121.52,28.371 121.361,28.513 121.061,28.824 120.703,29.118 120.703,29.127 
		120.672,29.127 120.652,29.164 120.795,29.299 120.863,29.478 120.957,29.643 121.031,29.812 121.23,29.761 121.361,29.692 
		121.527,29.614 121.65,29.538 121.939,29.418 122.184,29.283 122.4,29.118 122.668,28.965 122.91,28.824 123.148,28.675 
		123.404,28.587 123.703,28.491 124.105,28.371 125.912,28.371 125.641,28.491 125.303,28.628 125.047,28.777 124.732,28.948 
		124.352,29.164 123.984,29.418 123.604,29.658 123.24,29.931 122.879,30.191 122.52,30.433 122.094,30.69 121.699,30.919 
		121.68,30.932 121.65,30.932 121.641,30.965 121.607,30.965 121.68,31.175 121.727,31.37 121.848,31.539 121.898,31.737 
		122.094,31.658 122.262,31.612 122.457,31.571 122.621,31.502 122.879,31.448 123.168,31.327 123.439,31.22 123.734,31.101 
		123.984,31.008 124.229,30.932 124.549,30.871 124.836,30.844 125.262,30.8 125.672,30.774 126.109,30.749 128.365,30.749 
		128.047,30.808 127.678,30.919 127.396,30.976 127.088,31.057 126.727,31.157 126.438,31.248 126.109,31.343 125.758,31.448 
		125.381,31.58 124.941,31.781 124.51,31.947 124.137,32.148 123.703,32.354 123.26,32.522 122.879,32.719 122.428,32.848 
		122.379,32.891 122.336,32.891 122.275,32.907 122.232,32.928 122.262,33.105 122.307,33.271 122.355,33.464 122.379,33.67 
		122.5,33.66 122.59,33.66 122.715,33.633 122.801,33.633 122.91,33.602 123.004,33.602 123.092,33.584 123.201,33.584 
		123.453,33.555 123.773,33.505 124.033,33.464 124.352,33.386 124.635,33.342 124.896,33.305 125.244,33.295 125.533,33.305 
		125.957,33.342 126.398,33.386 126.803,33.438 127.271,33.505 127.713,33.602 128.143,33.67 128.605,33.753 129.061,33.826 
		128.713,33.844 128.381,33.87 128.078,33.87 127.678,33.891 127.348,33.948 127.033,33.963 126.68,34.01 126.336,34.054 
		125.877,34.132 125.453,34.253 125.006,34.358 124.563,34.465 124.105,34.585 123.672,34.69 123.201,34.812 122.789,34.871 
		122.637,34.871 122.549,34.905 122.467,34.905 122.5,34.932 122.549,34.995 122.52,35.096 122.52,35.194 	"/>
	<polygon class="st0" points="98.139,40.716 98.18,40.691 98.559,40.457 98.926,40.194 99.287,39.921 99.697,39.695 100.049,39.463 
		100.109,39.449 100.119,39.417 100.156,39.417 100.166,39.404 100.109,39.206 100.002,39.01 99.957,38.844 99.91,38.643 
		99.697,38.707 99.545,38.748 99.381,38.799 99.215,38.844 98.896,38.915 98.637,39.01 98.361,39.115 98.111,39.22 97.852,39.336 
		97.531,39.417 97.254,39.49 97.004,39.537 96.543,39.581 96.109,39.615 95.654,39.632 95.23,39.632 94.773,39.615 93.427,39.615 
		93.76,39.537 94.074,39.463 94.379,39.373 94.74,39.298 95.059,39.22 95.367,39.128 95.682,39.037 95.986,38.932 96.426,38.768 
		96.832,38.599 97.254,38.416 97.697,38.221 98.111,38.054 98.547,37.858 98.943,37.689 99.381,37.523 99.426,37.494 99.467,37.474 
		99.533,37.474 99.572,37.452 99.545,37.279 99.467,37.114 99.426,36.917 99.408,36.701 99.305,36.701 99.178,36.743 98.834,36.743 
		98.723,36.752 98.637,36.752 98.348,36.779 98.061,36.831 97.725,36.904 97.455,36.948 97.168,36.99 96.883,37.039 96.592,37.073 
		96.305,37.073 95.85,37.039 95.393,36.99 94.953,36.948 94.498,36.874 94.074,36.779 93.637,36.701 93.149,36.637 92.741,36.552 
		93.093,36.542 93.427,36.515 93.76,36.493 94.092,36.469 94.41,36.436 94.773,36.385 95.105,36.375 95.439,36.326 95.863,36.253 
		96.352,36.148 96.791,36.038 97.244,35.92 97.654,35.818 98.139,35.691 98.559,35.6 98.996,35.515 99.088,35.47 99.24,35.47 
		99.305,35.448 99.287,35.436 99.256,35.387 99.24,35.279 99.256,35.194 100.771,35.194 100.852,36.221 101.029,37.239 
		101.334,38.188 101.68,39.128 102.139,39.994 102.576,40.716 100.82,40.716 100.82,40.691 100.697,40.524 100.578,40.603 
		100.436,40.678 100.336,40.716 	"/>
	<polygon class="st0" points="109.502,40.716 109.563,40.395 109.836,39.506 110.164,38.643 110.5,37.829 110.955,37.039 
		111.197,37.452 111.428,37.885 111.637,38.296 111.834,38.721 112,39.163 112.168,39.581 112.348,40.026 112.475,40.479 
		112.533,40.716 	"/>
	<polygon class="st0" points="119.488,40.716 119.926,39.994 120.311,39.128 120.652,38.188 120.863,37.239 120.988,36.221 
		121,35.194 122.52,35.194 122.52,35.6 122.637,35.629 122.742,35.629 122.867,35.64 122.973,35.673 123.092,35.691 123.213,35.691 
		123.26,35.727 123.379,35.727 123.672,35.738 123.953,35.738 124.273,35.727 125.166,35.727 125.467,35.77 125.758,35.842 
		126.199,35.932 126.605,36.053 127.023,36.18 127.469,36.326 127.916,36.493 128.287,36.637 128.742,36.779 129.184,36.917 
		128.838,36.904 128.498,36.842 128.203,36.831 127.84,36.779 127.469,36.752 127.104,36.743 126.775,36.743 126.438,36.701 
		126,36.701 125.533,36.743 125.066,36.779 124.635,36.804 124.158,36.842 123.672,36.874 123.213,36.904 122.5,36.904 
		122.4,36.874 122.428,37.073 122.4,37.254 122.355,37.438 122.336,37.621 122.428,37.649 122.549,37.662 122.668,37.689 
		122.789,37.722 122.91,37.736 122.973,37.78 123.092,37.814 123.213,37.829 123.504,37.899 123.822,37.948 124.08,37.983 
		124.367,38.022 124.682,38.073 124.971,38.148 125.262,38.221 125.533,38.342 125.943,38.509 126.318,38.707 126.744,38.886 
		127.15,39.115 127.561,39.336 127.953,39.537 128.365,39.752 128.777,39.984 128.43,39.874 128.088,39.816 127.76,39.7 
		127.424,39.615 127.104,39.537 126.775,39.449 126.408,39.373 126.08,39.298 125.641,39.22 125.166,39.174 124.709,39.128 
		124.242,39.085 123.773,39.037 123.318,38.994 122.834,38.932 122.4,38.869 122.307,38.844 122.232,38.813 122.139,38.813 
		122.047,38.799 121.986,38.964 121.977,39.115 121.898,39.274 121.814,39.449 121.928,39.49 122.047,39.537 122.105,39.615 
		122.262,39.663 122.355,39.7 122.467,39.752 122.563,39.816 122.668,39.857 122.955,39.984 123.213,40.068 123.504,40.163 
		123.789,40.268 124.08,40.354 124.367,40.457 124.635,40.603 124.852,40.716 121.641,40.716 121.582,40.691 121.52,40.652 
		121.414,40.615 121.361,40.603 121.293,40.716 	"/>
	<polygon class="st0" points="98.139,40.716 97.789,40.973 97.441,41.195 97.027,41.435 96.758,41.596 96.426,41.755 96.141,41.895 
		95.85,42.01 95.531,42.159 95.244,42.284 94.953,42.421 94.648,42.572 95.076,42.478 95.514,42.403 95.969,42.325 96.391,42.252 
		96.832,42.189 97.254,42.088 97.666,41.995 98.076,41.873 98.348,41.785 98.637,41.662 98.896,41.516 99.135,41.369 99.344,41.224 
		99.617,41.075 99.91,40.931 100.156,40.807 100.277,40.738 100.336,40.716 	"/>
	<polygon class="st0" points="100.82,40.716 100.928,40.889 101.029,41.058 101.141,41.224 101.105,41.224 101.105,41.252 
		101.094,41.252 101.063,41.269 100.725,41.557 100.414,41.873 100.109,42.189 99.789,42.521 99.451,42.827 99.135,43.148 
		98.834,43.468 98.488,43.752 98.258,43.936 97.986,44.163 97.725,44.347 97.455,44.537 97.168,44.74 96.91,44.901 96.639,45.087 
		96.375,45.283 96.791,45.119 97.193,44.962 97.605,44.825 98.014,44.662 98.424,44.51 98.834,44.347 99.178,44.179 99.572,43.979 
		99.834,43.842 100.076,43.693 100.287,43.514 100.514,43.316 100.725,43.116 100.936,42.935 101.182,42.768 101.379,42.584 
		101.518,42.494 101.637,42.421 101.727,42.352 101.879,42.284 101.924,42.352 101.998,42.443 102.08,42.521 102.119,42.584 
		102.199,42.663 102.285,42.736 102.336,42.827 102.408,42.9 102.119,43.267 101.879,43.634 101.617,43.979 101.393,44.347 
		101.105,44.74 100.852,45.087 100.607,45.452 100.313,45.787 100.109,46.031 99.879,46.262 99.668,46.509 99.426,46.756 
		99.178,46.993 98.943,47.241 98.713,47.446 98.488,47.693 98.885,47.446 99.24,47.241 99.617,47.015 100.002,46.795 
		100.396,46.587 100.738,46.362 101.094,46.134 101.424,45.858 101.668,45.667 101.879,45.479 102.08,45.266 102.244,45.04 
		102.408,44.799 102.576,44.588 102.744,44.371 102.957,44.163 103.027,44.058 103.119,43.967 103.246,43.883 103.318,43.791 
		103.391,43.877 103.467,43.936 103.564,44.019 103.637,44.058 103.727,44.136 103.803,44.204 103.881,44.268 103.969,44.347 
		103.59,45.146 103.246,45.936 102.889,46.756 102.488,47.524 102.316,47.81 102.119,48.072 101.955,48.356 101.791,48.635 
		101.617,48.887 101.393,49.183 101.213,49.427 101.029,49.707 101.379,49.42 101.713,49.131 102.014,48.857 102.365,48.571 
		102.664,48.282 103.018,47.994 103.301,47.71 103.564,47.404 103.926,46.949 104.164,46.467 104.459,45.936 104.74,45.452 
		104.805,45.356 104.881,45.266 104.92,45.164 105.047,45.068 105.123,45.119 105.199,45.164 105.316,45.237 105.396,45.283 
		105.49,45.324 105.576,45.376 105.686,45.435 105.773,45.479 105.506,46.311 105.316,47.172 105.123,48.04 104.881,48.887 
		104.666,49.494 104.41,50.087 104.137,50.692 103.881,51.294 104.164,50.952 104.424,50.618 104.715,50.279 104.98,49.941 
		105.244,49.618 105.455,49.271 105.727,48.933 105.941,48.571 106.189,48.072 106.377,47.524 106.514,46.964 106.713,46.44 
		106.754,46.311 106.838,46.22 106.848,46.098 106.895,46.015 107.02,46.031 107.092,46.066 107.213,46.098 107.305,46.147 
		107.428,46.174 107.5,46.188 107.625,46.188 107.717,46.22 107.67,46.673 107.65,47.121 107.625,47.568 107.594,48.026 
		107.576,48.481 107.545,48.933 107.5,49.388 107.48,49.826 107.363,50.477 107.213,51.103 107.049,51.746 106.895,52.37 
		107.305,51.6 107.746,50.861 108.117,50.087 108.439,49.329 108.607,48.771 108.697,48.221 108.732,47.646 108.852,47.089 
		108.852,46.964 108.891,46.846 108.924,46.722 108.939,46.604 109.064,46.631 109.168,46.631 109.258,46.67 109.35,46.673 
		109.789,46.673 109.805,47.135 109.863,47.588 109.91,48.04 109.967,48.509 110.045,48.968 110.086,49.42 110.152,49.84 
		110.164,50.307 110.164,51.646 110.121,51.961 110.086,52.302 110.086,52.61 110.045,52.95 110.328,52.138 110.607,51.294 
		110.855,50.477 111.016,49.665 111.08,49.087 111.063,48.509 111.016,47.952 111.016,47.251 111.031,47.121 111.031,46.964 
		111.063,46.835 111.688,46.835 111.834,46.795 111.943,47.251 112.066,47.693 112.213,48.145 112.379,48.571 112.5,49.046 
		112.639,49.462 112.758,49.905 112.877,50.33 112.941,50.661 113,51.012 113.031,51.35 113.1,51.675 113.15,51.998 113.201,52.324 
		113.23,52.634 113.273,52.977 113.318,52.545 113.359,52.138 113.438,51.712 113.488,51.267 113.525,50.824 113.58,50.399 
		113.604,49.997 113.604,49.554 113.58,49.271 113.559,48.982 113.525,48.691 113.438,48.4 113.359,48.114 113.273,47.825 
		113.23,47.568 113.164,47.281 113.15,47.167 113.15,46.846 113.119,46.67 113.318,46.631 113.488,46.604 113.658,46.55 
		113.852,46.509 113.852,46.541 113.863,46.55 113.863,46.587 114.059,47.015 114.271,47.413 114.504,47.825 114.715,48.272 
		114.961,48.674 115.141,49.087 115.363,49.494 115.527,49.905 115.652,50.208 115.777,50.545 115.895,50.861 116.018,51.191 
		116.078,51.509 116.188,51.839 116.301,52.162 116.367,52.466 116.352,52.045 116.326,51.6 116.301,51.145 116.301,50.724 
		116.268,50.279 116.232,49.84 116.188,49.42 116.078,49.014 116.033,48.728 115.957,48.439 115.836,48.165 115.709,47.899 
		115.611,47.646 115.486,47.345 115.381,47.089 115.285,46.835 115.244,46.67 115.195,46.486 115.123,46.311 115.094,46.147 
		115.252,46.098 115.424,46.031 115.625,45.968 115.744,45.858 115.777,45.887 115.826,45.936 115.836,45.968 115.826,46.015 
		116.105,46.393 116.367,46.762 116.641,47.167 116.941,47.524 117.215,47.899 117.506,48.282 117.787,48.651 118.029,49.046 
		118.213,49.329 118.395,49.626 118.561,49.914 118.732,50.234 118.869,50.545 119.018,50.824 119.18,51.145 119.318,51.433 
		119.23,51.012 119.139,50.572 119.018,50.134 118.938,49.707 118.787,49.297 118.699,48.857 118.58,48.446 118.441,48.04 
		118.336,47.783 118.199,47.524 118.045,47.251 117.883,47.015 117.709,46.756 117.543,46.509 117.379,46.262 117.23,46.015 
		117.166,45.846 117.059,45.667 117,45.479 116.895,45.315 117.051,45.21 117.215,45.119 117.379,45.026 117.506,44.901 
		117.521,44.95 117.59,44.995 117.633,45.04 117.633,45.087 117.984,45.435 118.318,45.767 118.621,46.098 118.988,46.44 
		119.346,46.756 119.688,47.089 120,47.404 120.338,47.742 120.576,47.994 120.771,48.282 120.988,48.561 121.197,48.811 
		121.414,49.087 121.641,49.376 121.814,49.626 122.018,49.914 121.814,49.505 121.65,49.097 121.52,48.674 121.322,48.272 
		121.127,47.861 120.941,47.446 120.771,47.062 120.535,46.709 120.381,46.44 120.209,46.188 120.049,45.968 119.838,45.738 
		119.607,45.525 119.424,45.315 119.199,45.087 119.031,44.862 118.977,44.782 118.91,44.684 118.85,44.615 118.775,44.51 
		118.699,44.42 118.68,44.347 118.58,44.251 118.502,44.179 118.652,44.058 118.787,43.936 118.91,43.816 119.031,43.693 
		119.094,43.752 119.152,43.791 119.199,43.842 119.273,43.883 119.607,44.179 120.014,44.463 120.408,44.74 120.818,44.995 
		121.23,45.266 121.641,45.498 121.977,45.787 122.355,46.056 122.621,46.262 122.879,46.509 123.127,46.756 123.365,46.993 
		123.625,47.209 123.861,47.446 124.105,47.693 124.367,47.934 124.137,47.568 123.898,47.172 123.625,46.795 123.404,46.42 
		123.148,46.056 122.91,45.689 122.637,45.324 122.379,44.995 122.17,44.752 121.977,44.566 121.727,44.347 121.475,44.179 
		121.23,43.979 120.988,43.816 120.771,43.634 120.549,43.437 120.457,43.357 120.369,43.267 120.311,43.194 120.209,43.096 
		120.141,43.025 120.072,42.951 120,42.861 119.926,42.783 120.014,42.663 120.141,42.521 120.209,42.372 120.311,42.237 
		120.408,42.284 120.473,42.325 120.535,42.372 120.621,42.421 120.818,42.541 121.031,42.646 121.242,42.736 121.438,42.861 
		121.65,42.951 121.863,43.062 122.094,43.148 122.307,43.24 122.549,43.346 122.756,43.437 122.955,43.524 123.168,43.634 
		123.379,43.725 123.604,43.816 123.789,43.936 123.984,44.045 124.307,44.222 124.594,44.42 124.896,44.615 125.215,44.799 
		125.467,44.995 125.75,45.19 126.047,45.376 126.318,45.577 126.035,45.237 125.715,44.901 125.428,44.566 125.09,44.222 
		124.809,43.883 124.471,43.583 124.158,43.267 123.85,42.974 123.604,42.783 123.334,42.607 123.076,42.478 122.801,42.325 
		122.549,42.189 122.275,42.042 122.018,41.895 121.76,41.755 121.65,41.677 121.564,41.63 121.475,41.557 121.395,41.499 
		121.293,41.42 121.197,41.369 121.078,41.296 120.988,41.252 121.078,41.075 121.197,40.901 121.242,40.772 121.293,40.716 
		119.488,40.716 119.424,40.843 118.869,41.63 118.248,42.325 117.521,42.999 116.758,43.583 115.957,44.085 115.074,44.51 
		114.152,44.862 113.201,45.087 112.213,45.266 111.18,45.315 110.152,45.266 109.104,45.087 108.152,44.862 107.213,44.51 
		106.316,44.085 105.455,43.583 104.666,42.999 103.938,42.325 103.275,41.63 102.654,40.843 102.576,40.716 	"/>
	<polygon class="st0" points="109.502,40.716 109.35,41.296 109.217,42.237 109.104,43.194 109.064,44.163 109.301,44.204 
		109.549,44.251 109.836,44.3 110.086,44.326 110.367,44.347 110.627,44.371 110.893,44.383 111.428,44.383 111.65,44.371 
		111.928,44.371 112.213,44.347 112.459,44.3 112.697,44.268 112.953,44.222 113.164,44.179 113.119,43.693 113.045,43.24 
		113,42.768 112.914,42.298 112.818,41.828 112.711,41.369 112.594,40.931 112.533,40.716 	"/>
	<polygon class="st0" points="121.641,40.716 121.848,40.799 122.094,40.858 122.336,40.931 122.549,41.004 122.756,41.075 
		123.029,41.136 123.24,41.195 123.488,41.252 123.703,41.315 123.939,41.369 124.158,41.435 124.391,41.499 124.607,41.557 
		124.836,41.63 125.047,41.711 125.262,41.785 125.576,41.895 125.912,42.042 126.225,42.189 126.568,42.298 126.85,42.443 
		127.15,42.584 127.498,42.768 127.785,42.9 127.424,42.607 127.088,42.325 126.727,42.042 126.365,41.755 126,41.499 
		125.621,41.224 125.291,40.973 124.879,40.738 124.852,40.716 	"/>
	<polygon class="st0" points="101.801,33.537 101.924,32.928 102.209,31.875 102.654,30.844 102.957,30.871 103.246,30.919 
		103.59,30.965 103.926,31.008 104.23,31.084 104.551,31.175 104.881,31.297 105.213,31.417 105.576,31.571 105.891,31.737 
		106.258,31.92 106.592,32.117 106.955,32.354 107.305,32.613 107.695,32.928 108.057,33.251 107.834,33.537 	"/>
	<polygon class="st0" points="113.746,33.537 113.559,33.295 113.852,33.006 114.139,32.738 114.467,32.491 114.789,32.273 
		115.074,32.069 115.416,31.859 115.744,31.679 116.078,31.502 116.396,31.37 116.758,31.248 117.109,31.128 117.43,31.038 
		117.787,30.965 118.125,30.919 118.537,30.871 118.896,30.844 119.152,31.343 119.383,31.875 119.561,32.405 119.762,32.928 
		119.879,33.505 119.879,33.537 	"/>
	<polygon class="st0" points="101.727,36.053 101.756,36.038 101.68,35.6 101.68,35.194 101.727,34.054 101.801,33.537 
		107.834,33.537 107.238,34.358 106.561,35.4 106.189,36.053 	"/>
	<polygon class="st0" points="115.611,36.053 115.336,35.629 114.998,35.143 114.664,34.69 114.318,34.206 113.941,33.753 
		113.746,33.537 119.879,33.537 120,34.054 120.049,34.617 120.094,35.194 120.072,36.038 120.049,36.053 	"/>
	<polygon class="st0" points="101.727,36.053 101.801,36.436 101.879,36.842 101.998,37.254 102.086,37.662 102.244,38.054 
		102.377,38.435 102.545,38.813 102.744,39.206 102.957,39.569 103.15,39.921 103.365,40.285 103.637,40.615 103.895,40.973 
		104.164,41.269 104.381,40.327 104.666,39.404 105.029,38.435 105.455,37.452 105.973,36.436 106.189,36.053 	"/>
	<polygon class="st0" points="115.611,36.053 115.664,36.131 115.984,36.618 116.232,37.08 116.516,37.601 116.758,38.1 
		117.014,38.631 117.23,39.128 117.457,39.663 117.621,40.194 117.803,40.716 117.957,41.269 118.441,40.615 118.896,39.921 
		119.273,39.206 119.561,38.435 119.803,37.662 119.969,36.842 120.049,36.053 	"/>
	<path class="st0" d="M100.623,35.228c0-5.679,4.605-10.282,10.287-10.282c5.684,0,10.287,4.604,10.287,10.282
		c0,5.684-4.604,10.288-10.287,10.288C105.229,45.516,100.623,40.912,100.623,35.228L100.623,35.228z"/>
</g>
</svg>
